<mxfile host="Electron" agent="Mozilla/5.0 (Windows NT 10.0; Win64; x64) AppleWebKit/537.36 (KHTML, like Gecko) draw.io/25.0.1 Chrome/128.0.6613.186 Electron/32.2.6 Safari/537.36" version="25.0.1">
  <diagram name="Page-1" id="199fWJRK1vc3moUDYdQ4">
    <mxGraphModel dx="1671" dy="976" grid="1" gridSize="10" guides="1" tooltips="1" connect="1" arrows="1" fold="1" page="1" pageScale="1" pageWidth="1600" pageHeight="900" math="0" shadow="0">
      <root>
        <mxCell id="0" />
        <mxCell id="1" parent="0" />
        <mxCell id="eyP7jL1zlivogUxFEyrx-1" value="" style="endArrow=none;html=1;rounded=0;" edge="1" parent="1">
          <mxGeometry width="50" height="50" relative="1" as="geometry">
            <mxPoint x="80" y="120" as="sourcePoint" />
            <mxPoint x="1520" y="120" as="targetPoint" />
          </mxGeometry>
        </mxCell>
        <mxCell id="eyP7jL1zlivogUxFEyrx-2" value="AI Platform" style="text;html=1;align=center;verticalAlign=middle;whiteSpace=wrap;rounded=0;fontSize=36;fontStyle=1" vertex="1" parent="1">
          <mxGeometry x="60" y="80" width="240" height="30" as="geometry" />
        </mxCell>
        <mxCell id="eyP7jL1zlivogUxFEyrx-3" value="Operations" style="text;html=1;align=left;verticalAlign=middle;whiteSpace=wrap;rounded=0;fontSize=36;fontStyle=0" vertex="1" parent="1">
          <mxGeometry x="300" y="80" width="240" height="30" as="geometry" />
        </mxCell>
        <mxCell id="eyP7jL1zlivogUxFEyrx-4" value="" style="endArrow=none;html=1;rounded=0;" edge="1" parent="1">
          <mxGeometry width="50" height="50" relative="1" as="geometry">
            <mxPoint x="290" y="80" as="sourcePoint" />
            <mxPoint x="290" y="110" as="targetPoint" />
          </mxGeometry>
        </mxCell>
        <mxCell id="eyP7jL1zlivogUxFEyrx-5" value="Desenvolvimento&lt;div&gt;de Notebooks&lt;/div&gt;" style="rounded=0;whiteSpace=wrap;html=1;" vertex="1" parent="1">
          <mxGeometry x="90" y="180" width="120" height="60" as="geometry" />
        </mxCell>
        <mxCell id="eyP7jL1zlivogUxFEyrx-6" value="Experiment" style="text;html=1;align=center;verticalAlign=middle;whiteSpace=wrap;rounded=0;fontSize=24;fontStyle=0;rotation=-90;" vertex="1" parent="1">
          <mxGeometry x="-100" y="195" width="240" height="30" as="geometry" />
        </mxCell>
        <mxCell id="eyP7jL1zlivogUxFEyrx-7" value="Modeling / Training" style="text;html=1;align=center;verticalAlign=middle;whiteSpace=wrap;rounded=0;fontSize=24;fontStyle=0;rotation=-90;" vertex="1" parent="1">
          <mxGeometry x="-100" y="400" width="240" height="30" as="geometry" />
        </mxCell>
        <mxCell id="eyP7jL1zlivogUxFEyrx-8" value="Serving / Inference" style="text;html=1;align=center;verticalAlign=middle;whiteSpace=wrap;rounded=0;fontSize=24;fontStyle=0;rotation=-90;" vertex="1" parent="1">
          <mxGeometry x="-100" y="640" width="240" height="30" as="geometry" />
        </mxCell>
        <mxCell id="eyP7jL1zlivogUxFEyrx-9" value="" style="endArrow=none;html=1;rounded=0;dashed=1;" edge="1" parent="1">
          <mxGeometry width="50" height="50" relative="1" as="geometry">
            <mxPoint x="90" y="300" as="sourcePoint" />
            <mxPoint x="1530" y="300" as="targetPoint" />
          </mxGeometry>
        </mxCell>
        <mxCell id="eyP7jL1zlivogUxFEyrx-10" value="" style="endArrow=none;html=1;rounded=0;dashed=1;" edge="1" parent="1">
          <mxGeometry width="50" height="50" relative="1" as="geometry">
            <mxPoint x="90" y="540" as="sourcePoint" />
            <mxPoint x="1250" y="540" as="targetPoint" />
          </mxGeometry>
        </mxCell>
        <mxCell id="eyP7jL1zlivogUxFEyrx-11" value="Encadeamento&lt;div&gt;de Notebooks&lt;/div&gt;" style="rounded=0;whiteSpace=wrap;html=1;" vertex="1" parent="1">
          <mxGeometry x="270" y="180" width="120" height="60" as="geometry" />
        </mxCell>
        <mxCell id="eyP7jL1zlivogUxFEyrx-12" value="Avaliação" style="rounded=0;whiteSpace=wrap;html=1;" vertex="1" parent="1">
          <mxGeometry x="450" y="180" width="120" height="60" as="geometry" />
        </mxCell>
        <mxCell id="eyP7jL1zlivogUxFEyrx-13" value="Deploy&lt;div&gt;de Modelos&lt;/div&gt;" style="rounded=0;whiteSpace=wrap;html=1;" vertex="1" parent="1">
          <mxGeometry x="630" y="180" width="120" height="60" as="geometry" />
        </mxCell>
        <mxCell id="eyP7jL1zlivogUxFEyrx-14" value="Desenvolvimento&lt;div&gt;de Components&lt;/div&gt;" style="rounded=0;whiteSpace=wrap;html=1;" vertex="1" parent="1">
          <mxGeometry x="90" y="390" width="120" height="60" as="geometry" />
        </mxCell>
        <mxCell id="eyP7jL1zlivogUxFEyrx-15" value="Encadeamento&lt;div&gt;em Pipelines&lt;/div&gt;" style="rounded=0;whiteSpace=wrap;html=1;" vertex="1" parent="1">
          <mxGeometry x="270" y="390" width="120" height="60" as="geometry" />
        </mxCell>
        <mxCell id="eyP7jL1zlivogUxFEyrx-16" value="Compilação" style="rounded=0;whiteSpace=wrap;html=1;" vertex="1" parent="1">
          <mxGeometry x="450" y="390" width="120" height="60" as="geometry" />
        </mxCell>
        <mxCell id="eyP7jL1zlivogUxFEyrx-17" value="Execução de Jobs" style="rounded=0;whiteSpace=wrap;html=1;" vertex="1" parent="1">
          <mxGeometry x="630" y="390" width="120" height="60" as="geometry" />
        </mxCell>
        <mxCell id="eyP7jL1zlivogUxFEyrx-18" value="Avaliação" style="rounded=0;whiteSpace=wrap;html=1;" vertex="1" parent="1">
          <mxGeometry x="810" y="390" width="120" height="60" as="geometry" />
        </mxCell>
        <mxCell id="eyP7jL1zlivogUxFEyrx-19" value="Versionamento&lt;div&gt;de Modelos&lt;/div&gt;" style="rounded=0;whiteSpace=wrap;html=1;" vertex="1" parent="1">
          <mxGeometry x="990" y="390" width="120" height="60" as="geometry" />
        </mxCell>
        <mxCell id="eyP7jL1zlivogUxFEyrx-20" value="Rollout" style="rounded=0;whiteSpace=wrap;html=1;" vertex="1" parent="1">
          <mxGeometry x="1170" y="390" width="120" height="60" as="geometry" />
        </mxCell>
        <mxCell id="eyP7jL1zlivogUxFEyrx-21" value="Engenharia&amp;nbsp;&lt;div&gt;de Dados&lt;/div&gt;" style="rounded=0;whiteSpace=wrap;html=1;" vertex="1" parent="1">
          <mxGeometry x="90" y="625" width="120" height="60" as="geometry" />
        </mxCell>
        <mxCell id="eyP7jL1zlivogUxFEyrx-22" value="Enriquecimento&lt;br&gt;(predict)" style="rounded=0;whiteSpace=wrap;html=1;" vertex="1" parent="1">
          <mxGeometry x="450" y="625" width="120" height="60" as="geometry" />
        </mxCell>
        <mxCell id="eyP7jL1zlivogUxFEyrx-23" value="Monitoramento&lt;div&gt;de Performance&lt;/div&gt;" style="rounded=0;whiteSpace=wrap;html=1;" vertex="1" parent="1">
          <mxGeometry x="630" y="625" width="120" height="60" as="geometry" />
        </mxCell>
        <mxCell id="eyP7jL1zlivogUxFEyrx-24" value="Monitoramento&lt;div&gt;de Drift&lt;/div&gt;" style="rounded=0;whiteSpace=wrap;html=1;" vertex="1" parent="1">
          <mxGeometry x="810" y="625" width="120" height="60" as="geometry" />
        </mxCell>
        <mxCell id="eyP7jL1zlivogUxFEyrx-25" value="Retreinamento" style="rounded=0;whiteSpace=wrap;html=1;" vertex="1" parent="1">
          <mxGeometry x="990" y="625" width="120" height="60" as="geometry" />
        </mxCell>
        <mxCell id="eyP7jL1zlivogUxFEyrx-26" value="Legenda" style="shape=table;startSize=20;container=1;collapsible=0;childLayout=tableLayout;strokeColor=default;fontSize=16;rowLines=1;" vertex="1" parent="1">
          <mxGeometry x="1310" y="450" width="290" height="450" as="geometry" />
        </mxCell>
        <mxCell id="eyP7jL1zlivogUxFEyrx-99" style="shape=tableRow;horizontal=0;startSize=0;swimlaneHead=0;swimlaneBody=0;strokeColor=inherit;top=0;left=0;bottom=0;right=0;collapsible=0;dropTarget=0;fillColor=none;points=[[0,0.5],[1,0.5]];portConstraint=eastwest;fontSize=16;" vertex="1" parent="eyP7jL1zlivogUxFEyrx-26">
          <mxGeometry y="20" width="290" height="25" as="geometry" />
        </mxCell>
        <mxCell id="eyP7jL1zlivogUxFEyrx-100" value="CI-1.1" style="shape=partialRectangle;html=1;whiteSpace=wrap;connectable=0;strokeColor=inherit;overflow=hidden;fillColor=none;top=0;left=0;bottom=0;right=0;pointerEvents=1;fontSize=16;align=left;" vertex="1" parent="eyP7jL1zlivogUxFEyrx-99">
          <mxGeometry width="58" height="25" as="geometry">
            <mxRectangle width="58" height="25" as="alternateBounds" />
          </mxGeometry>
        </mxCell>
        <mxCell id="eyP7jL1zlivogUxFEyrx-101" value="Teste unitário" style="shape=partialRectangle;html=1;whiteSpace=wrap;connectable=0;strokeColor=inherit;overflow=hidden;fillColor=none;top=0;left=0;bottom=0;right=0;pointerEvents=1;fontSize=16;align=left;" vertex="1" parent="eyP7jL1zlivogUxFEyrx-99">
          <mxGeometry x="58" width="232" height="25" as="geometry">
            <mxRectangle width="232" height="25" as="alternateBounds" />
          </mxGeometry>
        </mxCell>
        <mxCell id="eyP7jL1zlivogUxFEyrx-96" style="shape=tableRow;horizontal=0;startSize=0;swimlaneHead=0;swimlaneBody=0;strokeColor=inherit;top=0;left=0;bottom=0;right=0;collapsible=0;dropTarget=0;fillColor=none;points=[[0,0.5],[1,0.5]];portConstraint=eastwest;fontSize=16;" vertex="1" parent="eyP7jL1zlivogUxFEyrx-26">
          <mxGeometry y="45" width="290" height="26" as="geometry" />
        </mxCell>
        <mxCell id="eyP7jL1zlivogUxFEyrx-97" value="CI-1.2" style="shape=partialRectangle;html=1;whiteSpace=wrap;connectable=0;strokeColor=inherit;overflow=hidden;fillColor=none;top=0;left=0;bottom=0;right=0;pointerEvents=1;fontSize=16;align=left;" vertex="1" parent="eyP7jL1zlivogUxFEyrx-96">
          <mxGeometry width="58" height="26" as="geometry">
            <mxRectangle width="58" height="26" as="alternateBounds" />
          </mxGeometry>
        </mxCell>
        <mxCell id="eyP7jL1zlivogUxFEyrx-98" value="Teste integrado" style="shape=partialRectangle;html=1;whiteSpace=wrap;connectable=0;strokeColor=inherit;overflow=hidden;fillColor=none;top=0;left=0;bottom=0;right=0;pointerEvents=1;fontSize=16;align=left;" vertex="1" parent="eyP7jL1zlivogUxFEyrx-96">
          <mxGeometry x="58" width="232" height="26" as="geometry">
            <mxRectangle width="232" height="26" as="alternateBounds" />
          </mxGeometry>
        </mxCell>
        <mxCell id="eyP7jL1zlivogUxFEyrx-93" style="shape=tableRow;horizontal=0;startSize=0;swimlaneHead=0;swimlaneBody=0;strokeColor=inherit;top=0;left=0;bottom=0;right=0;collapsible=0;dropTarget=0;fillColor=none;points=[[0,0.5],[1,0.5]];portConstraint=eastwest;fontSize=16;" vertex="1" parent="eyP7jL1zlivogUxFEyrx-26">
          <mxGeometry y="71" width="290" height="25" as="geometry" />
        </mxCell>
        <mxCell id="eyP7jL1zlivogUxFEyrx-94" value="ML-1.1" style="shape=partialRectangle;html=1;whiteSpace=wrap;connectable=0;strokeColor=inherit;overflow=hidden;fillColor=none;top=0;left=0;bottom=0;right=0;pointerEvents=1;fontSize=16;align=left;" vertex="1" parent="eyP7jL1zlivogUxFEyrx-93">
          <mxGeometry width="58" height="25" as="geometry">
            <mxRectangle width="58" height="25" as="alternateBounds" />
          </mxGeometry>
        </mxCell>
        <mxCell id="eyP7jL1zlivogUxFEyrx-95" value="Log de métricas" style="shape=partialRectangle;html=1;whiteSpace=wrap;connectable=0;strokeColor=inherit;overflow=hidden;fillColor=none;top=0;left=0;bottom=0;right=0;pointerEvents=1;fontSize=16;align=left;" vertex="1" parent="eyP7jL1zlivogUxFEyrx-93">
          <mxGeometry x="58" width="232" height="25" as="geometry">
            <mxRectangle width="232" height="25" as="alternateBounds" />
          </mxGeometry>
        </mxCell>
        <mxCell id="eyP7jL1zlivogUxFEyrx-90" style="shape=tableRow;horizontal=0;startSize=0;swimlaneHead=0;swimlaneBody=0;strokeColor=inherit;top=0;left=0;bottom=0;right=0;collapsible=0;dropTarget=0;fillColor=none;points=[[0,0.5],[1,0.5]];portConstraint=eastwest;fontSize=16;" vertex="1" parent="eyP7jL1zlivogUxFEyrx-26">
          <mxGeometry y="96" width="290" height="25" as="geometry" />
        </mxCell>
        <mxCell id="eyP7jL1zlivogUxFEyrx-91" value="CD-1.1" style="shape=partialRectangle;html=1;whiteSpace=wrap;connectable=0;strokeColor=inherit;overflow=hidden;fillColor=none;top=0;left=0;bottom=0;right=0;pointerEvents=1;fontSize=16;align=left;" vertex="1" parent="eyP7jL1zlivogUxFEyrx-90">
          <mxGeometry width="58" height="25" as="geometry">
            <mxRectangle width="58" height="25" as="alternateBounds" />
          </mxGeometry>
        </mxCell>
        <mxCell id="eyP7jL1zlivogUxFEyrx-92" value="Upload em registries/buckets" style="shape=partialRectangle;html=1;whiteSpace=wrap;connectable=0;strokeColor=inherit;overflow=hidden;fillColor=none;top=0;left=0;bottom=0;right=0;pointerEvents=1;fontSize=16;align=left;" vertex="1" parent="eyP7jL1zlivogUxFEyrx-90">
          <mxGeometry x="58" width="232" height="25" as="geometry">
            <mxRectangle width="232" height="25" as="alternateBounds" />
          </mxGeometry>
        </mxCell>
        <mxCell id="eyP7jL1zlivogUxFEyrx-87" style="shape=tableRow;horizontal=0;startSize=0;swimlaneHead=0;swimlaneBody=0;strokeColor=inherit;top=0;left=0;bottom=0;right=0;collapsible=0;dropTarget=0;fillColor=none;points=[[0,0.5],[1,0.5]];portConstraint=eastwest;fontSize=16;" vertex="1" parent="eyP7jL1zlivogUxFEyrx-26">
          <mxGeometry y="121" width="290" height="26" as="geometry" />
        </mxCell>
        <mxCell id="eyP7jL1zlivogUxFEyrx-88" value="CI-2.1" style="shape=partialRectangle;html=1;whiteSpace=wrap;connectable=0;strokeColor=inherit;overflow=hidden;fillColor=none;top=0;left=0;bottom=0;right=0;pointerEvents=1;fontSize=16;align=left;" vertex="1" parent="eyP7jL1zlivogUxFEyrx-87">
          <mxGeometry width="58" height="26" as="geometry">
            <mxRectangle width="58" height="26" as="alternateBounds" />
          </mxGeometry>
        </mxCell>
        <mxCell id="eyP7jL1zlivogUxFEyrx-89" value="Teste unitário" style="shape=partialRectangle;html=1;whiteSpace=wrap;connectable=0;strokeColor=inherit;overflow=hidden;fillColor=none;top=0;left=0;bottom=0;right=0;pointerEvents=1;fontSize=16;align=left;" vertex="1" parent="eyP7jL1zlivogUxFEyrx-87">
          <mxGeometry x="58" width="232" height="26" as="geometry">
            <mxRectangle width="232" height="26" as="alternateBounds" />
          </mxGeometry>
        </mxCell>
        <mxCell id="eyP7jL1zlivogUxFEyrx-84" style="shape=tableRow;horizontal=0;startSize=0;swimlaneHead=0;swimlaneBody=0;strokeColor=inherit;top=0;left=0;bottom=0;right=0;collapsible=0;dropTarget=0;fillColor=none;points=[[0,0.5],[1,0.5]];portConstraint=eastwest;fontSize=16;" vertex="1" parent="eyP7jL1zlivogUxFEyrx-26">
          <mxGeometry y="147" width="290" height="25" as="geometry" />
        </mxCell>
        <mxCell id="eyP7jL1zlivogUxFEyrx-85" value="CI-2.2" style="shape=partialRectangle;html=1;whiteSpace=wrap;connectable=0;strokeColor=inherit;overflow=hidden;fillColor=none;top=0;left=0;bottom=0;right=0;pointerEvents=1;fontSize=16;align=left;" vertex="1" parent="eyP7jL1zlivogUxFEyrx-84">
          <mxGeometry width="58" height="25" as="geometry">
            <mxRectangle width="58" height="25" as="alternateBounds" />
          </mxGeometry>
        </mxCell>
        <mxCell id="eyP7jL1zlivogUxFEyrx-86" value="Teste integrado" style="shape=partialRectangle;html=1;whiteSpace=wrap;connectable=0;strokeColor=inherit;overflow=hidden;fillColor=none;top=0;left=0;bottom=0;right=0;pointerEvents=1;fontSize=16;align=left;" vertex="1" parent="eyP7jL1zlivogUxFEyrx-84">
          <mxGeometry x="58" width="232" height="25" as="geometry">
            <mxRectangle width="232" height="25" as="alternateBounds" />
          </mxGeometry>
        </mxCell>
        <mxCell id="eyP7jL1zlivogUxFEyrx-81" style="shape=tableRow;horizontal=0;startSize=0;swimlaneHead=0;swimlaneBody=0;strokeColor=inherit;top=0;left=0;bottom=0;right=0;collapsible=0;dropTarget=0;fillColor=none;points=[[0,0.5],[1,0.5]];portConstraint=eastwest;fontSize=16;" vertex="1" parent="eyP7jL1zlivogUxFEyrx-26">
          <mxGeometry y="172" width="290" height="25" as="geometry" />
        </mxCell>
        <mxCell id="eyP7jL1zlivogUxFEyrx-82" value="CD-2.1" style="shape=partialRectangle;html=1;whiteSpace=wrap;connectable=0;strokeColor=inherit;overflow=hidden;fillColor=none;top=0;left=0;bottom=0;right=0;pointerEvents=1;fontSize=16;align=left;" vertex="1" parent="eyP7jL1zlivogUxFEyrx-81">
          <mxGeometry width="58" height="25" as="geometry">
            <mxRectangle width="58" height="25" as="alternateBounds" />
          </mxGeometry>
        </mxCell>
        <mxCell id="eyP7jL1zlivogUxFEyrx-83" value="Build" style="shape=partialRectangle;html=1;whiteSpace=wrap;connectable=0;strokeColor=inherit;overflow=hidden;fillColor=none;top=0;left=0;bottom=0;right=0;pointerEvents=1;fontSize=16;align=left;" vertex="1" parent="eyP7jL1zlivogUxFEyrx-81">
          <mxGeometry x="58" width="232" height="25" as="geometry">
            <mxRectangle width="232" height="25" as="alternateBounds" />
          </mxGeometry>
        </mxCell>
        <mxCell id="eyP7jL1zlivogUxFEyrx-78" style="shape=tableRow;horizontal=0;startSize=0;swimlaneHead=0;swimlaneBody=0;strokeColor=inherit;top=0;left=0;bottom=0;right=0;collapsible=0;dropTarget=0;fillColor=none;points=[[0,0.5],[1,0.5]];portConstraint=eastwest;fontSize=16;" vertex="1" parent="eyP7jL1zlivogUxFEyrx-26">
          <mxGeometry y="197" width="290" height="26" as="geometry" />
        </mxCell>
        <mxCell id="eyP7jL1zlivogUxFEyrx-79" value="CD-2.2" style="shape=partialRectangle;html=1;whiteSpace=wrap;connectable=0;strokeColor=inherit;overflow=hidden;fillColor=none;top=0;left=0;bottom=0;right=0;pointerEvents=1;fontSize=16;align=left;" vertex="1" parent="eyP7jL1zlivogUxFEyrx-78">
          <mxGeometry width="58" height="26" as="geometry">
            <mxRectangle width="58" height="26" as="alternateBounds" />
          </mxGeometry>
        </mxCell>
        <mxCell id="eyP7jL1zlivogUxFEyrx-80" value="Aplicação de configuração" style="shape=partialRectangle;html=1;whiteSpace=wrap;connectable=0;strokeColor=inherit;overflow=hidden;fillColor=none;top=0;left=0;bottom=0;right=0;pointerEvents=1;fontSize=16;align=left;" vertex="1" parent="eyP7jL1zlivogUxFEyrx-78">
          <mxGeometry x="58" width="232" height="26" as="geometry">
            <mxRectangle width="232" height="26" as="alternateBounds" />
          </mxGeometry>
        </mxCell>
        <mxCell id="eyP7jL1zlivogUxFEyrx-75" style="shape=tableRow;horizontal=0;startSize=0;swimlaneHead=0;swimlaneBody=0;strokeColor=inherit;top=0;left=0;bottom=0;right=0;collapsible=0;dropTarget=0;fillColor=none;points=[[0,0.5],[1,0.5]];portConstraint=eastwest;fontSize=16;" vertex="1" parent="eyP7jL1zlivogUxFEyrx-26">
          <mxGeometry y="223" width="290" height="25" as="geometry" />
        </mxCell>
        <mxCell id="eyP7jL1zlivogUxFEyrx-76" value="ML-2.1" style="shape=partialRectangle;html=1;whiteSpace=wrap;connectable=0;strokeColor=inherit;overflow=hidden;fillColor=none;top=0;left=0;bottom=0;right=0;pointerEvents=1;fontSize=16;align=left;" vertex="1" parent="eyP7jL1zlivogUxFEyrx-75">
          <mxGeometry width="58" height="25" as="geometry">
            <mxRectangle width="58" height="25" as="alternateBounds" />
          </mxGeometry>
        </mxCell>
        <mxCell id="eyP7jL1zlivogUxFEyrx-77" value="Log de métricas" style="shape=partialRectangle;html=1;whiteSpace=wrap;connectable=0;strokeColor=inherit;overflow=hidden;fillColor=none;top=0;left=0;bottom=0;right=0;pointerEvents=1;fontSize=16;align=left;" vertex="1" parent="eyP7jL1zlivogUxFEyrx-75">
          <mxGeometry x="58" width="232" height="25" as="geometry">
            <mxRectangle width="232" height="25" as="alternateBounds" />
          </mxGeometry>
        </mxCell>
        <mxCell id="eyP7jL1zlivogUxFEyrx-72" style="shape=tableRow;horizontal=0;startSize=0;swimlaneHead=0;swimlaneBody=0;strokeColor=inherit;top=0;left=0;bottom=0;right=0;collapsible=0;dropTarget=0;fillColor=none;points=[[0,0.5],[1,0.5]];portConstraint=eastwest;fontSize=16;" vertex="1" parent="eyP7jL1zlivogUxFEyrx-26">
          <mxGeometry y="248" width="290" height="25" as="geometry" />
        </mxCell>
        <mxCell id="eyP7jL1zlivogUxFEyrx-73" value="CD-2.2" style="shape=partialRectangle;html=1;whiteSpace=wrap;connectable=0;strokeColor=inherit;overflow=hidden;fillColor=none;top=0;left=0;bottom=0;right=0;pointerEvents=1;fontSize=16;align=left;" vertex="1" parent="eyP7jL1zlivogUxFEyrx-72">
          <mxGeometry width="58" height="25" as="geometry">
            <mxRectangle width="58" height="25" as="alternateBounds" />
          </mxGeometry>
        </mxCell>
        <mxCell id="eyP7jL1zlivogUxFEyrx-74" value="Upload com controle de versão" style="shape=partialRectangle;html=1;whiteSpace=wrap;connectable=0;strokeColor=inherit;overflow=hidden;fillColor=none;top=0;left=0;bottom=0;right=0;pointerEvents=1;fontSize=16;align=left;" vertex="1" parent="eyP7jL1zlivogUxFEyrx-72">
          <mxGeometry x="58" width="232" height="25" as="geometry">
            <mxRectangle width="232" height="25" as="alternateBounds" />
          </mxGeometry>
        </mxCell>
        <mxCell id="eyP7jL1zlivogUxFEyrx-69" style="shape=tableRow;horizontal=0;startSize=0;swimlaneHead=0;swimlaneBody=0;strokeColor=inherit;top=0;left=0;bottom=0;right=0;collapsible=0;dropTarget=0;fillColor=none;points=[[0,0.5],[1,0.5]];portConstraint=eastwest;fontSize=16;" vertex="1" parent="eyP7jL1zlivogUxFEyrx-26">
          <mxGeometry y="273" width="290" height="26" as="geometry" />
        </mxCell>
        <mxCell id="eyP7jL1zlivogUxFEyrx-70" value="CD-2.3" style="shape=partialRectangle;html=1;whiteSpace=wrap;connectable=0;strokeColor=inherit;overflow=hidden;fillColor=none;top=0;left=0;bottom=0;right=0;pointerEvents=1;fontSize=16;align=left;" vertex="1" parent="eyP7jL1zlivogUxFEyrx-69">
          <mxGeometry width="58" height="26" as="geometry">
            <mxRectangle width="58" height="26" as="alternateBounds" />
          </mxGeometry>
        </mxCell>
        <mxCell id="eyP7jL1zlivogUxFEyrx-71" value="Reapontamento de versão" style="shape=partialRectangle;html=1;whiteSpace=wrap;connectable=0;strokeColor=inherit;overflow=hidden;fillColor=none;top=0;left=0;bottom=0;right=0;pointerEvents=1;fontSize=16;align=left;" vertex="1" parent="eyP7jL1zlivogUxFEyrx-69">
          <mxGeometry x="58" width="232" height="26" as="geometry">
            <mxRectangle width="232" height="26" as="alternateBounds" />
          </mxGeometry>
        </mxCell>
        <mxCell id="eyP7jL1zlivogUxFEyrx-66" style="shape=tableRow;horizontal=0;startSize=0;swimlaneHead=0;swimlaneBody=0;strokeColor=inherit;top=0;left=0;bottom=0;right=0;collapsible=0;dropTarget=0;fillColor=none;points=[[0,0.5],[1,0.5]];portConstraint=eastwest;fontSize=16;" vertex="1" parent="eyP7jL1zlivogUxFEyrx-26">
          <mxGeometry y="299" width="290" height="25" as="geometry" />
        </mxCell>
        <mxCell id="eyP7jL1zlivogUxFEyrx-67" value="CI-3.1" style="shape=partialRectangle;html=1;whiteSpace=wrap;connectable=0;strokeColor=inherit;overflow=hidden;fillColor=none;top=0;left=0;bottom=0;right=0;pointerEvents=1;fontSize=16;align=left;" vertex="1" parent="eyP7jL1zlivogUxFEyrx-66">
          <mxGeometry width="58" height="25" as="geometry">
            <mxRectangle width="58" height="25" as="alternateBounds" />
          </mxGeometry>
        </mxCell>
        <mxCell id="eyP7jL1zlivogUxFEyrx-68" value="Teste integrado" style="shape=partialRectangle;html=1;whiteSpace=wrap;connectable=0;strokeColor=inherit;overflow=hidden;fillColor=none;top=0;left=0;bottom=0;right=0;pointerEvents=1;fontSize=16;align=left;" vertex="1" parent="eyP7jL1zlivogUxFEyrx-66">
          <mxGeometry x="58" width="232" height="25" as="geometry">
            <mxRectangle width="232" height="25" as="alternateBounds" />
          </mxGeometry>
        </mxCell>
        <mxCell id="eyP7jL1zlivogUxFEyrx-27" value="" style="shape=tableRow;horizontal=0;startSize=0;swimlaneHead=0;swimlaneBody=0;strokeColor=inherit;top=0;left=0;bottom=0;right=0;collapsible=0;dropTarget=0;fillColor=none;points=[[0,0.5],[1,0.5]];portConstraint=eastwest;fontSize=16;" vertex="1" parent="eyP7jL1zlivogUxFEyrx-26">
          <mxGeometry y="324" width="290" height="25" as="geometry" />
        </mxCell>
        <mxCell id="eyP7jL1zlivogUxFEyrx-28" value="CD-3.1" style="shape=partialRectangle;html=1;whiteSpace=wrap;connectable=0;strokeColor=inherit;overflow=hidden;fillColor=none;top=0;left=0;bottom=0;right=0;pointerEvents=1;fontSize=16;align=left;" vertex="1" parent="eyP7jL1zlivogUxFEyrx-27">
          <mxGeometry width="58" height="25" as="geometry">
            <mxRectangle width="58" height="25" as="alternateBounds" />
          </mxGeometry>
        </mxCell>
        <mxCell id="eyP7jL1zlivogUxFEyrx-29" value="Compilação do pipeline" style="shape=partialRectangle;html=1;whiteSpace=wrap;connectable=0;strokeColor=inherit;overflow=hidden;fillColor=none;top=0;left=0;bottom=0;right=0;pointerEvents=1;fontSize=16;align=left;" vertex="1" parent="eyP7jL1zlivogUxFEyrx-27">
          <mxGeometry x="58" width="232" height="25" as="geometry">
            <mxRectangle width="232" height="25" as="alternateBounds" />
          </mxGeometry>
        </mxCell>
        <mxCell id="eyP7jL1zlivogUxFEyrx-31" value="" style="shape=tableRow;horizontal=0;startSize=0;swimlaneHead=0;swimlaneBody=0;strokeColor=inherit;top=0;left=0;bottom=0;right=0;collapsible=0;dropTarget=0;fillColor=none;points=[[0,0.5],[1,0.5]];portConstraint=eastwest;fontSize=16;" vertex="1" parent="eyP7jL1zlivogUxFEyrx-26">
          <mxGeometry y="349" width="290" height="26" as="geometry" />
        </mxCell>
        <mxCell id="eyP7jL1zlivogUxFEyrx-32" value="ML-3.1" style="shape=partialRectangle;html=1;whiteSpace=wrap;connectable=0;strokeColor=inherit;overflow=hidden;fillColor=none;top=0;left=0;bottom=0;right=0;pointerEvents=1;fontSize=16;align=left;" vertex="1" parent="eyP7jL1zlivogUxFEyrx-31">
          <mxGeometry width="58" height="26" as="geometry">
            <mxRectangle width="58" height="26" as="alternateBounds" />
          </mxGeometry>
        </mxCell>
        <mxCell id="eyP7jL1zlivogUxFEyrx-33" value="Log de métricas" style="shape=partialRectangle;html=1;whiteSpace=wrap;connectable=0;strokeColor=inherit;overflow=hidden;fillColor=none;top=0;left=0;bottom=0;right=0;pointerEvents=1;fontSize=16;align=left;" vertex="1" parent="eyP7jL1zlivogUxFEyrx-31">
          <mxGeometry x="58" width="232" height="26" as="geometry">
            <mxRectangle width="232" height="26" as="alternateBounds" />
          </mxGeometry>
        </mxCell>
        <mxCell id="eyP7jL1zlivogUxFEyrx-35" value="" style="shape=tableRow;horizontal=0;startSize=0;swimlaneHead=0;swimlaneBody=0;strokeColor=inherit;top=0;left=0;bottom=0;right=0;collapsible=0;dropTarget=0;fillColor=none;points=[[0,0.5],[1,0.5]];portConstraint=eastwest;fontSize=16;" vertex="1" parent="eyP7jL1zlivogUxFEyrx-26">
          <mxGeometry y="375" width="290" height="25" as="geometry" />
        </mxCell>
        <mxCell id="eyP7jL1zlivogUxFEyrx-36" value="ML-3.2" style="shape=partialRectangle;html=1;whiteSpace=wrap;connectable=0;strokeColor=inherit;overflow=hidden;fillColor=none;top=0;left=0;bottom=0;right=0;pointerEvents=1;fontSize=16;align=left;" vertex="1" parent="eyP7jL1zlivogUxFEyrx-35">
          <mxGeometry width="58" height="25" as="geometry">
            <mxRectangle width="58" height="25" as="alternateBounds" />
          </mxGeometry>
        </mxCell>
        <mxCell id="eyP7jL1zlivogUxFEyrx-37" value="Log de métricas" style="shape=partialRectangle;html=1;whiteSpace=wrap;connectable=0;strokeColor=inherit;overflow=hidden;fillColor=none;top=0;left=0;bottom=0;right=0;pointerEvents=1;fontSize=16;align=left;" vertex="1" parent="eyP7jL1zlivogUxFEyrx-35">
          <mxGeometry x="58" width="232" height="25" as="geometry">
            <mxRectangle width="232" height="25" as="alternateBounds" />
          </mxGeometry>
        </mxCell>
        <mxCell id="eyP7jL1zlivogUxFEyrx-102" style="shape=tableRow;horizontal=0;startSize=0;swimlaneHead=0;swimlaneBody=0;strokeColor=inherit;top=0;left=0;bottom=0;right=0;collapsible=0;dropTarget=0;fillColor=none;points=[[0,0.5],[1,0.5]];portConstraint=eastwest;fontSize=16;" vertex="1" parent="eyP7jL1zlivogUxFEyrx-26">
          <mxGeometry y="400" width="290" height="25" as="geometry" />
        </mxCell>
        <mxCell id="eyP7jL1zlivogUxFEyrx-103" value="ML-3.3" style="shape=partialRectangle;html=1;whiteSpace=wrap;connectable=0;strokeColor=inherit;overflow=hidden;fillColor=none;top=0;left=0;bottom=0;right=0;pointerEvents=1;fontSize=16;align=left;" vertex="1" parent="eyP7jL1zlivogUxFEyrx-102">
          <mxGeometry width="58" height="25" as="geometry">
            <mxRectangle width="58" height="25" as="alternateBounds" />
          </mxGeometry>
        </mxCell>
        <mxCell id="eyP7jL1zlivogUxFEyrx-104" value="Log de métricas" style="shape=partialRectangle;html=1;whiteSpace=wrap;connectable=0;strokeColor=inherit;overflow=hidden;fillColor=none;top=0;left=0;bottom=0;right=0;pointerEvents=1;fontSize=16;align=left;" vertex="1" parent="eyP7jL1zlivogUxFEyrx-102">
          <mxGeometry x="58" width="232" height="25" as="geometry">
            <mxRectangle width="232" height="25" as="alternateBounds" />
          </mxGeometry>
        </mxCell>
        <mxCell id="eyP7jL1zlivogUxFEyrx-105" style="shape=tableRow;horizontal=0;startSize=0;swimlaneHead=0;swimlaneBody=0;strokeColor=inherit;top=0;left=0;bottom=0;right=0;collapsible=0;dropTarget=0;fillColor=none;points=[[0,0.5],[1,0.5]];portConstraint=eastwest;fontSize=16;" vertex="1" parent="eyP7jL1zlivogUxFEyrx-26">
          <mxGeometry y="425" width="290" height="25" as="geometry" />
        </mxCell>
        <mxCell id="eyP7jL1zlivogUxFEyrx-106" value="CD-3.2" style="shape=partialRectangle;html=1;whiteSpace=wrap;connectable=0;strokeColor=inherit;overflow=hidden;fillColor=none;top=0;left=0;bottom=0;right=0;pointerEvents=1;fontSize=16;align=left;" vertex="1" parent="eyP7jL1zlivogUxFEyrx-105">
          <mxGeometry width="58" height="25" as="geometry">
            <mxRectangle width="58" height="25" as="alternateBounds" />
          </mxGeometry>
        </mxCell>
        <mxCell id="eyP7jL1zlivogUxFEyrx-107" value="Trigger" style="shape=partialRectangle;html=1;whiteSpace=wrap;connectable=0;strokeColor=inherit;overflow=hidden;fillColor=none;top=0;left=0;bottom=0;right=0;pointerEvents=1;fontSize=16;align=left;" vertex="1" parent="eyP7jL1zlivogUxFEyrx-105">
          <mxGeometry x="58" width="232" height="25" as="geometry">
            <mxRectangle width="232" height="25" as="alternateBounds" />
          </mxGeometry>
        </mxCell>
        <mxCell id="eyP7jL1zlivogUxFEyrx-40" value="CI-1.1" style="ellipse;whiteSpace=wrap;html=1;aspect=fixed;strokeColor=#c80404;" vertex="1" parent="1">
          <mxGeometry x="220" y="190" width="40" height="40" as="geometry" />
        </mxCell>
        <mxCell id="eyP7jL1zlivogUxFEyrx-42" value="CI-1.2" style="ellipse;whiteSpace=wrap;html=1;aspect=fixed;strokeColor=#c80404;" vertex="1" parent="1">
          <mxGeometry x="400" y="190" width="40" height="40" as="geometry" />
        </mxCell>
        <mxCell id="eyP7jL1zlivogUxFEyrx-43" value="ML-1.1" style="ellipse;whiteSpace=wrap;html=1;aspect=fixed;strokeColor=#c80404;" vertex="1" parent="1">
          <mxGeometry x="580" y="190" width="40" height="40" as="geometry" />
        </mxCell>
        <mxCell id="eyP7jL1zlivogUxFEyrx-44" value="CD-2.2" style="ellipse;whiteSpace=wrap;html=1;aspect=fixed;strokeColor=#c80404;" vertex="1" parent="1">
          <mxGeometry x="760" y="400" width="40" height="40" as="geometry" />
        </mxCell>
        <mxCell id="eyP7jL1zlivogUxFEyrx-45" value="ML-2.1" style="ellipse;whiteSpace=wrap;html=1;aspect=fixed;strokeColor=#c80404;" vertex="1" parent="1">
          <mxGeometry x="940" y="400" width="40" height="40" as="geometry" />
        </mxCell>
        <mxCell id="eyP7jL1zlivogUxFEyrx-46" value="CD-2.2" style="ellipse;whiteSpace=wrap;html=1;aspect=fixed;strokeColor=#c80404;" vertex="1" parent="1">
          <mxGeometry x="1120" y="400" width="40" height="40" as="geometry" />
        </mxCell>
        <mxCell id="eyP7jL1zlivogUxFEyrx-47" value="CI-2.1" style="ellipse;whiteSpace=wrap;html=1;aspect=fixed;strokeColor=#c80404;" vertex="1" parent="1">
          <mxGeometry x="220" y="400" width="40" height="40" as="geometry" />
        </mxCell>
        <mxCell id="eyP7jL1zlivogUxFEyrx-48" value="CI-2.2" style="ellipse;whiteSpace=wrap;html=1;aspect=fixed;strokeColor=#c80404;" vertex="1" parent="1">
          <mxGeometry x="400" y="400" width="40" height="40" as="geometry" />
        </mxCell>
        <mxCell id="eyP7jL1zlivogUxFEyrx-49" value="CD-2.1" style="ellipse;whiteSpace=wrap;html=1;aspect=fixed;strokeColor=#c80404;" vertex="1" parent="1">
          <mxGeometry x="580" y="400" width="40" height="40" as="geometry" />
        </mxCell>
        <mxCell id="eyP7jL1zlivogUxFEyrx-50" value="ML-3.3" style="ellipse;whiteSpace=wrap;html=1;aspect=fixed;strokeColor=#c80404;" vertex="1" parent="1">
          <mxGeometry x="940" y="635" width="40" height="40" as="geometry" />
        </mxCell>
        <mxCell id="eyP7jL1zlivogUxFEyrx-51" value="CI-3.1" style="ellipse;whiteSpace=wrap;html=1;aspect=fixed;strokeColor=#c80404;" vertex="1" parent="1">
          <mxGeometry x="220" y="635" width="40" height="40" as="geometry" />
        </mxCell>
        <mxCell id="eyP7jL1zlivogUxFEyrx-52" value="ML-3.1" style="ellipse;whiteSpace=wrap;html=1;aspect=fixed;strokeColor=#c80404;" vertex="1" parent="1">
          <mxGeometry x="580" y="635" width="40" height="40" as="geometry" />
        </mxCell>
        <mxCell id="eyP7jL1zlivogUxFEyrx-53" value="ML-3.2" style="ellipse;whiteSpace=wrap;html=1;aspect=fixed;strokeColor=#c80404;" vertex="1" parent="1">
          <mxGeometry x="760" y="635" width="40" height="40" as="geometry" />
        </mxCell>
        <mxCell id="eyP7jL1zlivogUxFEyrx-54" value="CD-1.1" style="ellipse;whiteSpace=wrap;html=1;aspect=fixed;strokeColor=#c80404;" vertex="1" parent="1">
          <mxGeometry x="760" y="190" width="40" height="40" as="geometry" />
        </mxCell>
        <mxCell id="eyP7jL1zlivogUxFEyrx-56" value="CD-2.3" style="ellipse;whiteSpace=wrap;html=1;aspect=fixed;strokeColor=#c80404;" vertex="1" parent="1">
          <mxGeometry x="1300" y="400" width="40" height="40" as="geometry" />
        </mxCell>
        <mxCell id="eyP7jL1zlivogUxFEyrx-57" value="Ativação&amp;nbsp;&lt;div&gt;do ETL&lt;/div&gt;" style="rounded=0;whiteSpace=wrap;html=1;" vertex="1" parent="1">
          <mxGeometry x="270" y="625" width="120" height="60" as="geometry" />
        </mxCell>
        <mxCell id="eyP7jL1zlivogUxFEyrx-58" value="CD-3.1" style="ellipse;whiteSpace=wrap;html=1;aspect=fixed;strokeColor=#c80404;" vertex="1" parent="1">
          <mxGeometry x="400" y="635" width="40" height="40" as="geometry" />
        </mxCell>
        <mxCell id="eyP7jL1zlivogUxFEyrx-59" value="CD-3.2" style="ellipse;whiteSpace=wrap;html=1;aspect=fixed;strokeColor=#c80404;" vertex="1" parent="1">
          <mxGeometry x="1120" y="630" width="40" height="40" as="geometry" />
        </mxCell>
      </root>
    </mxGraphModel>
  </diagram>
</mxfile>
